<?xml version="1.0" standalone="no"?>
<!DOCTYPE svg PUBLIC "-//W3C//DTD SVG 20010904//EN"
 "http://www.w3.org/TR/2001/REC-SVG-20010904/DTD/svg10.dtd">
<svg version="1.0" xmlns="http://www.w3.org/2000/svg"
 width="376.000000pt" height="308.000000pt" viewBox="0 0 376.000000 308.000000"
 preserveAspectRatio="xMidYMid meet">
<metadata>
Created by potrace 1.16, written by Peter Selinger 2001-2019
</metadata>
<g transform="translate(0.000000,308.000000) scale(0.100000,-0.100000)"
fill="#000000" stroke="none">
<path d="M1690 2931 c-202 -66 -401 -195 -451 -292 -39 -78 -103 -344 -164
-689 -14 -80 -28 -155 -30 -166 -4 -19 3 -24 48 -39 63 -20 112 -56 133 -96 8
-17 14 -32 12 -33 -2 -2 -29 -14 -61 -27 -78 -31 -147 -100 -191 -192 -36 -72
-66 -171 -66 -214 l0 -23 169 0 169 0 6 -27 c3 -16 8 -57 12 -93 3 -36 13 -82
21 -103 20 -48 82 -102 150 -127 93 -35 90 -38 97 108 4 70 9 155 12 190 l6
62 286 -2 287 -3 6 -120 c4 -66 7 -151 8 -189 l1 -69 41 7 c83 13 184 84 207
147 6 14 13 52 17 85 3 32 8 76 11 97 l6 37 169 0 169 0 0 33 c0 17 -6 55 -14
82 -44 167 -145 287 -273 327 -36 11 -42 16 -37 33 10 36 79 90 148 114 49 17
66 28 66 42 0 28 -77 396 -116 554 -49 198 -82 289 -122 336 -69 81 -243 181
-421 243 -129 45 -191 47 -311 7z m55 -21 c14 -22 35 -190 41 -322 7 -133 6
-138 -13 -138 -17 0 -21 13 -36 108 -18 110 -58 294 -71 324 -6 13 -1 19 26
27 44 13 46 13 53 1z m258 -9 c5 -5 4 -17 -2 -28 -12 -24 -53 -202 -76 -335
-16 -96 -35 -130 -35 -65 0 65 20 314 31 381 l11 68 31 -6 c17 -4 35 -10 40
-15z m196 -90 l24 -18 -21 -30 c-22 -31 -152 -299 -152 -313 0 -14 -26 -29
-38 -21 -13 8 70 266 114 353 27 53 37 57 73 29z m-651 -44 c25 -54 96 -255
107 -305 6 -29 4 -33 -10 -30 -10 2 -38 50 -74 128 -32 69 -72 149 -89 177
l-31 52 22 16 c33 23 49 15 75 -38z m838 -89 c29 -32 54 -75 54 -90 0 -7 -28
-31 -63 -53 -34 -22 -90 -64 -125 -93 -62 -52 -63 -53 -47 -20 23 47 48 94 85
162 49 89 19 58 -66 -69 -103 -155 -127 -154 -28 1 35 54 150 184 163 184 4 0
16 -10 27 -22z m-994 -50 c72 -85 158 -222 145 -234 -11 -12 -36 11 -56 54
-33 68 -78 120 -122 142 -53 28 -55 25 -10 -15 33 -30 111 -163 111 -190 0 -4
-26 17 -57 47 -32 30 -80 69 -108 88 -27 18 -51 34 -53 35 -1 1 5 22 13 46 17
46 50 89 71 89 7 0 37 -28 66 -62z m603 -229 c35 -12 78 -34 96 -49 33 -27 33
-28 37 -127 4 -105 -14 -227 -43 -283 -9 -17 -55 -69 -103 -117 l-87 -88 -66
-3 c-54 -3 -69 -1 -80 13 -8 10 -52 57 -98 104 -49 51 -93 107 -107 137 -38
81 -59 267 -23 202 7 -13 18 -15 44 -11 29 5 34 3 29 -10 -5 -13 2 -15 48 -11
74 7 83 -2 83 -83 0 -73 6 -90 45 -116 33 -23 69 -21 97 5 30 29 29 45 -2 24
-31 -21 -48 -20 -75 2 -21 17 -22 27 -24 136 -1 113 -2 119 -26 138 -21 17
-36 19 -95 16 -38 -2 -85 -11 -102 -20 l-33 -16 0 26 c0 44 22 74 70 98 43 22
115 47 170 58 48 9 182 -5 245 -25z m505 -69 c0 -23 -8 -28 -82 -54 -46 -16
-115 -44 -154 -63 -39 -18 -74 -33 -77 -33 -4 0 -7 11 -7 25 0 20 16 34 94 80
52 30 118 66 148 80 49 23 54 24 66 8 6 -9 12 -28 12 -43z m-1195 -13 c144
-78 163 -92 158 -121 -6 -30 -11 -31 -38 -12 -22 15 -149 68 -207 86 -20 6
-35 17 -33 23 2 7 6 24 9 40 4 15 12 27 19 27 6 0 48 -20 92 -43z m1233 -218
c3 -27 3 -27 -100 -39 -57 -7 -134 -18 -171 -26 -38 -8 -72 -14 -78 -14 -9 0
-7 35 3 45 11 11 273 64 308 62 30 -2 35 -6 38 -28z m-1245 -9 c157 -32 167
-36 167 -72 0 -27 -3 -30 -22 -24 -66 19 -240 54 -280 56 -5 0 -8 14 -8 30 0
37 6 37 143 10z m1265 -203 c2 -27 -2 -54 -8 -61 -7 -9 -40 -14 -98 -15 -92
-2 -302 -20 -314 -27 -4 -3 -10 11 -13 30 -9 48 17 96 53 97 15 0 95 6 177 13
212 18 199 20 203 -37z m-1160 -34 c141 -18 161 -28 147 -73 -5 -15 -11 -17
-36 -10 -16 5 -102 16 -192 25 -89 10 -167 22 -173 29 -7 6 -15 22 -19 35 l-7
24 73 -7 c41 -4 134 -14 207 -23z m918 -189 l101 -17 -10 -34 -11 -34 -55 7
c-31 3 -60 7 -66 8 -5 0 -11 -27 -13 -61 -3 -61 -2 -62 25 -68 83 -17 88 -20
91 -49 3 -23 0 -28 -13 -22 -9 3 -57 11 -108 18 -100 12 -127 28 -127 73 0 37
16 62 50 80 43 22 38 36 -10 29 -38 -6 -40 -5 -40 20 0 14 5 26 10 26 6 0 10
12 10 26 0 24 3 26 33 21 17 -3 78 -13 133 -23z m-796 -38 l0 -43 -82 -6 c-46
-3 -104 -9 -130 -13 l-48 -7 0 35 0 35 113 20 c157 29 147 31 147 -21z m162
-3 c10 -12 17 -48 21 -108 5 -83 7 -91 34 -112 53 -43 141 -42 188 1 23 22 25
30 25 113 0 76 3 93 19 107 27 25 63 17 79 -17 17 -34 37 -291 28 -342 -13
-68 -30 -75 -168 -74 -195 1 -288 11 -303 33 -22 30 -28 118 -17 245 13 138
22 160 73 170 3 0 13 -7 21 -16z"/>
<path d="M570 2524 c-80 -16 -226 -70 -293 -109 -75 -44 -227 -179 -227 -201
0 -6 19 -17 43 -24 155 -46 357 -208 437 -349 68 -120 52 -112 208 -109 l137
3 40 80 c36 72 63 116 112 183 9 14 34 112 58 234 l41 209 -27 15 c-15 7 -67
25 -116 40 -75 23 -110 27 -238 30 -82 1 -161 0 -175 -2z m351 -60 c76 -14
169 -48 169 -62 0 -40 -56 -303 -69 -321 -9 -13 -24 -35 -33 -49 -11 -17 -27
-26 -50 -27 -18 -1 -43 -6 -56 -10 -22 -7 -21 -3 18 76 23 46 62 112 87 147
25 35 43 65 41 68 -8 7 -127 -159 -164 -230 -34 -65 -38 -68 -51 -50 -23 31
-41 111 -58 254 -9 74 -18 136 -19 138 -2 2 -9 -37 -16 -85 -29 -221 -54 -323
-79 -323 -5 0 -24 26 -41 57 -56 98 -172 243 -195 243 -8 0 1 -13 63 -91 24
-30 63 -89 87 -131 l43 -76 -43 0 c-37 1 -49 7 -86 46 -45 45 -217 164 -263
182 -64 24 -35 67 96 145 186 111 388 143 619 99z m-152 -465 c12 -64 21 -131
21 -150 0 -39 -33 -99 -54 -99 -18 0 -54 45 -62 76 -3 13 9 101 27 195 29 148
35 166 41 133 3 -22 16 -91 27 -155z"/>
<path d="M2835 2524 c-96 -20 -168 -40 -211 -59 l-51 -23 41 -213 c41 -211 42
-215 84 -270 24 -32 62 -95 85 -140 l42 -84 139 0 139 0 49 80 c68 108 120
168 208 239 70 56 200 126 263 141 15 4 27 12 27 17 0 19 -131 139 -200 184
-86 55 -199 101 -297 120 -68 13 -269 18 -318 8z m331 -64 c45 -11 108 -31
140 -46 114 -53 224 -132 224 -160 0 -7 -26 -27 -57 -44 -95 -54 -197 -126
-244 -172 -36 -36 -50 -43 -86 -45 l-43 -2 16 31 c40 77 101 168 153 228 42
48 48 59 25 43 -55 -39 -214 -247 -214 -281 0 -5 -6 -15 -14 -21 -24 -20 -54
73 -79 251 -26 180 -22 183 -53 -37 -18 -129 -28 -174 -48 -200 -13 -18 -15
-16 -36 26 -31 59 -122 196 -161 239 -19 21 -25 25 -16 10 119 -190 166 -275
155 -285 -3 -3 -21 1 -40 9 -25 11 -38 12 -46 4 -7 -7 -14 -3 -22 13 -7 13
-23 35 -35 49 -18 20 -29 57 -50 174 -14 81 -24 154 -21 161 8 21 159 65 255
74 106 10 192 5 297 -19z m-161 -481 c29 -146 29 -146 9 -179 -28 -49 -48 -58
-73 -35 -37 33 -43 82 -22 181 11 49 25 125 32 169 12 72 14 76 20 45 3 -19
19 -101 34 -181z"/>
<path d="M630 1684 c0 -9 14 -28 30 -42 17 -15 30 -36 30 -49 0 -12 7 -26 14
-30 12 -7 15 -44 17 -201 1 -149 4 -192 14 -192 10 0 14 43 18 188 5 203 13
242 60 286 51 47 39 56 -78 56 -89 0 -105 -2 -105 -16z"/>
<path d="M2860 1684 c0 -9 14 -29 30 -44 17 -15 30 -35 30 -43 0 -9 4 -18 8
-21 5 -3 12 -94 16 -203 4 -108 9 -199 11 -202 14 -13 18 26 23 199 4 143 8
193 18 201 8 6 14 20 14 30 0 10 8 24 18 31 17 12 42 49 42 62 0 3 -47 6 -105
6 -90 0 -105 -2 -105 -16z"/>
<path d="M1104 734 c-47 -17 -105 -69 -131 -117 -26 -47 -25 -217 0 -269 45
-89 122 -132 237 -132 63 -1 83 4 123 26 l48 27 9 -24 c8 -20 17 -25 45 -25
l35 0 0 101 0 100 30 10 c19 7 30 18 30 30 0 18 -7 19 -107 17 -89 -3 -108 -6
-111 -19 -2 -11 8 -19 30 -25 26 -8 34 -16 36 -38 9 -73 -47 -121 -143 -121
-120 0 -170 61 -170 205 1 135 50 204 154 217 70 8 130 -22 162 -82 18 -33 30
-45 46 -45 22 0 23 3 23 85 0 83 0 85 -24 85 -16 0 -27 -7 -31 -19 -6 -19 -7
-19 -52 5 -38 20 -60 24 -122 23 -42 0 -95 -7 -117 -15z"/>
<path d="M390 720 c0 -15 7 -20 24 -20 14 0 27 -3 30 -8 3 -6 10 -372 7 -409
-1 -6 -14 -14 -31 -18 -21 -5 -30 -13 -30 -26 0 -18 8 -19 115 -19 103 0 119
2 145 22 17 12 30 25 30 30 0 4 -27 8 -60 8 l-60 0 0 96 0 95 53 -3 c51 -3 52
-3 67 -45 8 -24 17 -43 20 -43 22 1 30 26 36 118 7 98 6 102 -13 102 -14 0
-25 -12 -36 -40 l-15 -40 -56 0 -56 0 0 85 0 85 98 0 c113 0 135 -10 153 -69
8 -27 16 -38 28 -36 9 2 19 4 24 4 4 1 7 35 7 76 l0 75 -240 0 c-233 0 -240
-1 -240 -20z"/>
<path d="M1544 723 c2 -10 13 -20 26 -23 16 -4 50 -45 107 -130 l84 -124 -3
-85 -3 -85 -32 -10 c-22 -6 -33 -15 -33 -27 0 -18 10 -19 125 -19 114 0 125 2
125 18 0 12 -11 21 -32 27 l-33 10 -3 85 -3 86 72 104 c87 127 107 150 131
150 11 0 18 7 18 20 0 19 -7 20 -90 20 -83 0 -90 -1 -90 -20 0 -16 7 -20 30
-20 17 0 30 -5 30 -12 0 -7 -27 -53 -59 -102 l-59 -89 -61 93 c-34 51 -61 96
-61 101 0 5 18 9 40 9 33 0 40 3 40 20 0 19 -7 20 -134 20 -121 0 -134 -2
-132 -17z"/>
<path d="M2150 720 c0 -13 7 -20 18 -20 39 0 42 -17 42 -223 l0 -199 -30 -11
c-18 -7 -30 -19 -30 -29 0 -16 12 -18 125 -18 118 0 125 1 125 20 0 14 -7 20
-21 20 -49 0 -59 16 -59 95 l0 75 75 0 c112 0 169 15 204 55 51 58 50 165 -1
212 -40 36 -84 43 -269 43 -172 0 -179 -1 -179 -20z m345 -54 c45 -30 44 -120
-2 -156 -20 -16 -41 -20 -99 -20 l-74 0 0 101 0 102 76 -6 c42 -3 86 -12 99
-21z"/>
<path d="M2690 634 c0 -104 0 -105 22 -102 19 2 24 12 31 55 5 32 17 61 33 78
21 23 31 26 77 23 l52 -3 3 -197 c2 -168 0 -198 -14 -212 -8 -9 -24 -16 -35
-16 -12 0 -19 -7 -19 -20 0 -19 7 -20 120 -20 113 0 120 1 120 20 0 13 -7 20
-19 20 -47 0 -50 18 -48 228 l2 197 29 3 c83 10 123 -22 135 -107 5 -38 10
-47 29 -49 22 -3 22 -1 22 102 l0 106 -270 0 -270 0 0 -106z"/>
<path d="M836 422 c-2 -4 -6 -24 -10 -44 -4 -21 -19 -50 -36 -67 -20 -20 -30
-39 -30 -60 0 -31 0 -31 54 -31 l53 0 7 61 c11 109 8 136 -14 142 -11 3 -22 2
-24 -1z"/>
<path d="M430 80 l0 -80 844 0 c760 0 844 2 850 16 9 22 8 24 -8 18 -17 -7
-46 22 -46 45 0 26 21 40 58 39 31 -1 32 -3 32 -44 0 -81 -48 -74 521 -74
l509 0 0 80 0 80 -1215 0 c-1031 0 -1214 -2 -1209 -14 4 -11 -9 -14 -60 -14
-51 0 -66 3 -66 14 0 11 -21 14 -105 14 l-105 0 0 -80z"/>
</g>
</svg>
